<svg xmlns="http://www.w3.org/2000/svg" viewBox="0 0 223.999 215.895"><style>.st0{fill:#fff}.st1{fill:#51758b}.st2{fill:#929497}</style><path class="st0" d="M12.958 0S0 0 0 12.958v189.979s0 12.958 12.958 12.958H211.04s12.958 0 12.958-12.958V12.958S223.998 0 211.04 0H12.958z" id="BackgroundBox"/><g id="LogoGroup"><path class="st1" d="M152.017 104.373h20.552V50.639h13.828V175.84h-13.828v-57.642h-20.552z"/><path class="st1" d="M128.474 175.438c-13.003 0-23.812-9.243-23.812-23.81V50.589h13.787v101.04c0 7.049 4.386 10.025 10.025 10.025 5.482 0 10.025-2.976 10.025-10.025V50.589h13.6v-14.38H69.054v147.339H152.1v-28.711c-1.427 12.7-11.318 20.601-23.626 20.601"/></g><path class="st2" d="M53.579 174.898c.685 0 1.301.117 1.848.351a4.332 4.332 0 0 1 1.409.954c.392.402.689.871.894 1.409.205.538.308 1.12.308 1.745 0 .606-.103 1.179-.308 1.717a4.19 4.19 0 0 1-2.303 2.389c-.547.235-1.163.352-1.848.352h-18.92v-2.581h18.92c.666 0 1.144-.181 1.437-.543.293-.361.44-.806.44-1.335a2.07 2.07 0 0 0-.44-1.32c-.293-.371-.772-.558-1.437-.558h-18.92v-2.581h18.92zm4.048-10.941v2.288l-13.992 4.194h13.992v2.435H34.659v-2.581l14.168-3.931H34.659v-2.405zm-22.968-4.635h22.968v2.581H34.659zm0-10.325l22.969 3.315v2.405l-22.969 3.226v-2.962l15.371-1.673-15.371-1.671zm22.968-8.917v7.597H34.659v-7.597h2.581v5.016h7.275v-2.905h2.582v2.905h7.949v-5.016zm-17.922-7.89c-.821 0-1.437.142-1.849.424-.41.284-.616.895-.616 1.834v1.349h7.392v-1.349c0-.782-.185-1.355-.557-1.717-.371-.361-1.017-.542-1.937-.542h-2.433zm17.922-2.729v2.581h-8.096c-.528 0-.958.039-1.291.117-.332.078-.586.205-.762.381a1.419 1.419 0 0 0-.366.689c-.07.285-.104.632-.104 1.041v1.526h10.619v2.581H34.659v-4.459c0-1.409.386-2.479 1.159-3.212.773-.733 1.922-1.101 3.447-1.101h3.168c.822 0 1.492.186 2.01.558.519.371.885.87 1.1 1.496.196-.606.587-1.125 1.174-1.555.587-.43 1.418-.646 2.493-.646h8.417zm-23.349-6.248c0-1.29.371-2.357 1.114-3.197.744-.84 1.858-1.262 3.344-1.262h1.262l-.558 2.581h-.704c-.508 0-.948.186-1.32.558a1.807 1.807 0 0 0-.558 1.32c0 .392.078.709.235.954.157.244.357.44.601.586.244.147.519.244.821.293.304.05.612.074.924.074.47 0 .954-.103 1.452-.309a9.283 9.283 0 0 0 1.482-.777c.489-.312.968-.655 1.437-1.027.469-.371.909-.713 1.32-1.027.548-.411 1.115-.821 1.702-1.232s1.188-.778 1.803-1.101a11.414 11.414 0 0 1 1.922-.792 7.034 7.034 0 0 1 2.083-.308c.704 0 1.383.084 2.039.25a4.693 4.693 0 0 1 1.729.821c.5.381.895.87 1.188 1.466.293.597.44 1.317.44 2.157 0 .685-.117 1.295-.351 1.833a4.361 4.361 0 0 1-.955 1.394c-.4.391-.869.689-1.408.894a4.858 4.858 0 0 1-1.745.308h-1.232l.558-2.581h.674c.528 0 .978-.2 1.349-.601.371-.401.557-.855.557-1.364 0-.685-.21-1.193-.63-1.525-.42-.332-.944-.5-1.569-.5-.509 0-.958.03-1.349.088a5.3 5.3 0 0 0-1.174.323 11.02 11.02 0 0 0-1.73.851c-.547.333-1.086.69-1.614 1.071s-1.051.773-1.569 1.174c-.518.401-1.031.787-1.54 1.159a13.389 13.389 0 0 1-2.406 1.393c-.781.343-1.76.513-2.933.513-1.409 0-2.542-.381-3.404-1.144-.856-.761-1.287-1.866-1.287-3.314m.381-9.063h22.968v2.581H34.659zm2.581-9.24v2.669h20.388v2.582H37.24v2.61h-2.581v-7.861zm-2.581-10.648l12.115 3.697h10.854v2.61H46.891l-12.232 3.696v-2.933l8.242-2.142-8.242-2.141zm22.968-16.016v2.582H47.273v3.754h10.354v2.582H34.659v-2.582h10.033v-3.754H34.659v-2.582zm-18.891-8.33c-.586 0-1.046.186-1.379.558a1.915 1.915 0 0 0-.498 1.32c0 .528.166.973.498 1.335.333.362.793.543 1.379.543h14.843c.606 0 1.071-.181 1.393-.543.323-.362.485-.806.485-1.335 0-.508-.162-.948-.485-1.32-.322-.371-.786-.558-1.393-.558H38.736zm14.843-2.581c.666 0 1.272.117 1.819.351a4.343 4.343 0 0 1 1.408.954c.392.401.694.871.909 1.409a4.66 4.66 0 0 1 .323 1.745c0 .606-.108 1.178-.323 1.716a4.405 4.405 0 0 1-.909 1.423c-.391.411-.86.733-1.408.967a4.564 4.564 0 0 1-1.819.352H38.736c-.704 0-1.329-.117-1.877-.352a4.05 4.05 0 0 1-1.393-.967 4.353 4.353 0 0 1-.881-1.423 4.774 4.774 0 0 1-.308-1.716c0-.625.103-1.208.308-1.745a4.159 4.159 0 0 1 .881-1.409c.381-.4.846-.719 1.393-.954.548-.234 1.174-.351 1.877-.351h14.843zm0-10.854c.685 0 1.301.117 1.848.352a4.327 4.327 0 0 1 1.409.952c.392.401.689.871.894 1.409.205.538.308 1.12.308 1.745 0 .606-.103 1.178-.308 1.717a4.19 4.19 0 0 1-2.303 2.389c-.547.235-1.163.352-1.848.352h-18.92v-2.581h18.92c.666 0 1.144-.181 1.437-.543.293-.362.44-.806.44-1.335 0-.508-.147-.948-.44-1.32s-.772-.558-1.437-.558h-18.92v-2.581h18.92zm-19.301-6.306c0-1.29.371-2.357 1.114-3.197.744-.84 1.858-1.262 3.344-1.262h1.262l-.558 2.581h-.704c-.508 0-.948.186-1.32.558a1.807 1.807 0 0 0-.558 1.32c0 .392.078.709.235.954.157.244.357.44.601.586.244.147.519.244.821.294.304.049.612.073.924.073.47 0 .954-.103 1.452-.308a9.372 9.372 0 0 0 1.482-.778c.489-.312.968-.655 1.437-1.027.469-.371.909-.713 1.32-1.027a64.346 64.346 0 0 1 1.702-1.232 16.506 16.506 0 0 1 1.803-1.101 11.414 11.414 0 0 1 1.922-.792 7.034 7.034 0 0 1 2.083-.308c.704 0 1.383.084 2.039.25a4.693 4.693 0 0 1 1.729.821c.5.381.895.87 1.188 1.466.293.598.44 1.317.44 2.157 0 .685-.117 1.295-.351 1.833a4.361 4.361 0 0 1-.955 1.394c-.4.392-.869.689-1.408.894a4.858 4.858 0 0 1-1.745.308h-1.232l.558-2.581h.674c.528 0 .978-.2 1.349-.601.371-.401.557-.855.557-1.364 0-.685-.21-1.193-.63-1.525-.42-.332-.944-.498-1.569-.498-.509 0-.958.029-1.349.088a5.243 5.243 0 0 0-1.174.322 11.02 11.02 0 0 0-1.73.851c-.547.333-1.086.69-1.614 1.071s-1.051.773-1.569 1.174c-.518.401-1.031.787-1.54 1.159a13.389 13.389 0 0 1-2.406 1.393c-.781.343-1.76.513-2.933.513-1.409 0-2.542-.381-3.404-1.144-.856-.763-1.287-1.868-1.287-3.315m23.349-14.08v7.598H34.659v-7.598h2.581v5.016h7.275v-2.904h2.582v2.904h7.949v-5.016z" id="Lettertype"/></svg>