<?xml version="1.0" encoding="utf-8"?>
<!-- Generator: Adobe Illustrator 18.1.1, SVG Export Plug-In . SVG Version: 6.00 Build 0)  -->
<!DOCTYPE svg PUBLIC "-//W3C//DTD SVG 1.1//EN" "http://www.w3.org/Graphics/SVG/1.1/DTD/svg11.dtd">
<svg version="1.1" xmlns="http://www.w3.org/2000/svg" xmlns:xlink="http://www.w3.org/1999/xlink" x="0px" y="0px"
	 viewBox="0 0 223.999 215.895" style="enable-background:new 0 0 223.999 215.895;" xml:space="preserve">
<style type="text/css">
	.st0{fill:#FFFFFF;}
	.st1{fill:#51758B;}
	.st2{fill:#929497;}
</style>
<g id="BackgroundBox">
	<path class="st0" d="M12.958,0C12.958,0,0,0,0,12.958v189.979c0,0,0,12.958,12.958,12.958H211.04c0,0,12.958,0,12.958-12.958
		V12.958c0,0,0-12.958-12.958-12.958H12.958z"/>
</g>
<g id="LogoGroup">
	<polygon class="st1" points="152.017,104.373 172.569,104.373 172.569,50.639 186.397,50.639 186.397,175.84 172.569,175.84 
		172.569,118.198 152.017,118.198 	"/>
	<path class="st1" d="M128.474,175.438c-13.003,0-23.812-9.243-23.812-23.81V50.589h13.787v101.04
		c0,7.049,4.386,10.025,10.025,10.025c5.482,0,10.025-2.976,10.025-10.025V50.589h13.6v-14.38H69.054v147.339H152.1v-28.711
		C150.673,167.537,140.782,175.438,128.474,175.438"/>
</g>
<g id="Lettertype">
	<path class="st2" d="M53.579,174.898c0.685,0,1.301,0.117,1.848,0.351c0.548,0.235,1.017,0.553,1.409,0.954
		c0.392,0.402,0.689,0.871,0.894,1.409c0.205,0.538,0.308,1.12,0.308,1.745c0,0.606-0.103,1.179-0.308,1.717
		c-0.205,0.538-0.503,1.012-0.894,1.422c-0.392,0.411-0.86,0.733-1.409,0.967c-0.547,0.235-1.163,0.352-1.848,0.352h-18.92v-2.581
		h18.92c0.666,0,1.144-0.181,1.437-0.543c0.293-0.361,0.44-0.806,0.44-1.335c0-0.508-0.147-0.948-0.44-1.32
		c-0.293-0.371-0.772-0.558-1.437-0.558h-18.92v-2.581H53.579z"/>
	<polygon class="st2" points="57.627,163.957 57.627,166.245 43.635,170.439 57.627,170.439 57.627,172.874 34.659,172.874 
		34.659,170.293 48.827,166.362 34.659,166.362 34.659,163.957 	"/>
	<rect x="34.659" y="159.322" class="st2" width="22.968" height="2.581"/>
	<polygon class="st2" points="34.659,148.997 57.628,152.312 57.628,154.717 34.659,157.943 34.659,154.981 50.03,153.308 
		34.659,151.637 	"/>
	<polygon class="st2" points="57.627,140.08 57.627,147.677 34.659,147.677 34.659,140.08 37.24,140.08 37.24,145.096 
		44.515,145.096 44.515,142.191 47.097,142.191 47.097,145.096 55.046,145.096 55.046,140.08 	"/>
	<path class="st2" d="M39.705,132.19c-0.821,0-1.437,0.142-1.849,0.424c-0.41,0.284-0.616,0.895-0.616,1.834v1.349h7.392v-1.349
		c0-0.782-0.185-1.355-0.557-1.717c-0.371-0.361-1.017-0.542-1.937-0.542H39.705z M57.627,129.461v2.581h-8.096
		c-0.528,0-0.958,0.039-1.291,0.117c-0.332,0.078-0.586,0.205-0.762,0.381c-0.176,0.176-0.298,0.406-0.366,0.689
		c-0.07,0.285-0.104,0.632-0.104,1.041v1.526h10.619v2.581H34.659v-4.459c0-1.409,0.386-2.479,1.159-3.212
		c0.773-0.733,1.922-1.101,3.447-1.101h3.168c0.822,0,1.492,0.186,2.01,0.558c0.519,0.371,0.885,0.87,1.1,1.496
		c0.196-0.606,0.587-1.125,1.174-1.555c0.587-0.43,1.418-0.646,2.493-0.646H57.627z"/>
	<path class="st2" d="M34.278,123.213c0-1.29,0.371-2.357,1.114-3.197c0.744-0.84,1.858-1.262,3.344-1.262h1.262l-0.558,2.581
		h-0.704c-0.508,0-0.948,0.186-1.32,0.558c-0.371,0.371-0.558,0.812-0.558,1.32c0,0.392,0.078,0.709,0.235,0.954
		c0.157,0.244,0.357,0.44,0.601,0.586c0.244,0.147,0.519,0.244,0.821,0.293c0.304,0.05,0.612,0.074,0.924,0.074
		c0.47,0,0.954-0.103,1.452-0.309c0.498-0.204,0.993-0.464,1.482-0.777c0.489-0.312,0.968-0.655,1.437-1.027
		c0.469-0.371,0.909-0.713,1.32-1.027c0.548-0.411,1.115-0.821,1.702-1.232s1.188-0.778,1.803-1.101
		c0.617-0.323,1.257-0.586,1.922-0.792c0.665-0.205,1.36-0.308,2.083-0.308c0.704,0,1.383,0.084,2.039,0.25
		c0.655,0.166,1.232,0.439,1.729,0.821c0.5,0.381,0.895,0.87,1.188,1.466c0.293,0.597,0.44,1.317,0.44,2.157
		c0,0.685-0.117,1.295-0.351,1.833c-0.236,0.538-0.552,1.002-0.955,1.394c-0.4,0.391-0.869,0.689-1.408,0.894
		c-0.538,0.205-1.119,0.308-1.745,0.308h-1.232l0.558-2.581h0.674c0.528,0,0.978-0.2,1.349-0.601
		c0.371-0.401,0.557-0.855,0.557-1.364c0-0.685-0.21-1.193-0.63-1.525c-0.42-0.332-0.944-0.5-1.569-0.5
		c-0.509,0-0.958,0.03-1.349,0.088c-0.392,0.059-0.782,0.167-1.174,0.323c-0.605,0.235-1.183,0.519-1.73,0.851
		c-0.547,0.333-1.086,0.69-1.614,1.071c-0.528,0.381-1.051,0.773-1.569,1.174c-0.518,0.401-1.031,0.787-1.54,1.159
		c-0.821,0.586-1.622,1.051-2.406,1.393c-0.781,0.343-1.76,0.513-2.933,0.513c-1.409,0-2.542-0.381-3.404-1.144
		C34.709,125.766,34.278,124.661,34.278,123.213"/>
	<rect x="34.659" y="114.15" class="st2" width="22.968" height="2.581"/>
	<polygon class="st2" points="37.24,104.91 37.24,107.579 57.628,107.579 57.628,110.161 37.24,110.161 37.24,112.771 
		34.659,112.771 34.659,104.91 	"/>
	<polygon class="st2" points="34.659,94.262 46.774,97.959 57.628,97.959 57.628,100.569 46.891,100.569 34.659,104.265 
		34.659,101.332 42.901,99.19 34.659,97.049 	"/>
	<polygon class="st2" points="57.627,78.246 57.627,80.828 47.273,80.828 47.273,84.582 57.627,84.582 57.627,87.164 34.659,87.164 
		34.659,84.582 44.692,84.582 44.692,80.828 34.659,80.828 34.659,78.246 	"/>
	<path class="st2" d="M38.736,69.916c-0.586,0-1.046,0.186-1.379,0.558c-0.332,0.371-0.498,0.812-0.498,1.32
		c0,0.528,0.166,0.973,0.498,1.335c0.333,0.362,0.793,0.543,1.379,0.543h14.843c0.606,0,1.071-0.181,1.393-0.543
		c0.323-0.362,0.485-0.806,0.485-1.335c0-0.508-0.162-0.948-0.485-1.32c-0.322-0.371-0.786-0.558-1.393-0.558H38.736z
		 M53.579,67.335c0.666,0,1.272,0.117,1.819,0.351c0.547,0.235,1.017,0.554,1.408,0.954c0.392,0.401,0.694,0.871,0.909,1.409
		c0.215,0.538,0.323,1.12,0.323,1.745c0,0.606-0.108,1.178-0.323,1.716c-0.215,0.539-0.518,1.013-0.909,1.423
		c-0.391,0.411-0.86,0.733-1.408,0.967c-0.547,0.235-1.154,0.352-1.819,0.352H38.736c-0.704,0-1.329-0.117-1.877-0.352
		c-0.547-0.234-1.012-0.557-1.393-0.967c-0.382-0.411-0.675-0.885-0.881-1.423c-0.205-0.538-0.308-1.109-0.308-1.716
		c0-0.625,0.103-1.208,0.308-1.745c0.205-0.538,0.498-1.008,0.881-1.409c0.381-0.4,0.846-0.719,1.393-0.954
		c0.548-0.234,1.174-0.351,1.877-0.351H53.579z"/>
	<path class="st2" d="M53.579,56.481c0.685,0,1.301,0.117,1.848,0.352c0.548,0.234,1.017,0.552,1.409,0.952
		c0.392,0.401,0.689,0.871,0.894,1.409c0.205,0.538,0.308,1.12,0.308,1.745c0,0.606-0.103,1.178-0.308,1.717
		c-0.205,0.538-0.503,1.012-0.894,1.422c-0.392,0.411-0.86,0.733-1.409,0.967c-0.547,0.235-1.163,0.352-1.848,0.352h-18.92v-2.581
		h18.92c0.666,0,1.144-0.181,1.437-0.543c0.293-0.362,0.44-0.806,0.44-1.335c0-0.508-0.147-0.948-0.44-1.32
		s-0.772-0.558-1.437-0.558h-18.92v-2.581H53.579z"/>
	<path class="st2" d="M34.278,50.175c0-1.29,0.371-2.357,1.114-3.197c0.744-0.84,1.858-1.262,3.344-1.262h1.262l-0.558,2.581h-0.704
		c-0.508,0-0.948,0.186-1.32,0.558c-0.371,0.371-0.558,0.812-0.558,1.32c0,0.392,0.078,0.709,0.235,0.954
		c0.157,0.244,0.357,0.44,0.601,0.586c0.244,0.147,0.519,0.244,0.821,0.294c0.304,0.049,0.612,0.073,0.924,0.073
		c0.47,0,0.954-0.103,1.452-0.308c0.498-0.205,0.993-0.465,1.482-0.778c0.489-0.312,0.968-0.655,1.437-1.027
		c0.469-0.371,0.909-0.713,1.32-1.027c0.548-0.411,1.115-0.821,1.702-1.232c0.586-0.411,1.188-0.778,1.803-1.101
		c0.617-0.323,1.257-0.586,1.922-0.792c0.665-0.205,1.36-0.308,2.083-0.308c0.704,0,1.383,0.084,2.039,0.25
		c0.655,0.166,1.232,0.439,1.729,0.821c0.5,0.381,0.895,0.87,1.188,1.466c0.293,0.598,0.44,1.317,0.44,2.157
		c0,0.685-0.117,1.295-0.351,1.833c-0.236,0.538-0.552,1.002-0.955,1.394c-0.4,0.392-0.869,0.689-1.408,0.894
		c-0.538,0.205-1.119,0.308-1.745,0.308h-1.232l0.558-2.581h0.674c0.528,0,0.978-0.2,1.349-0.601
		c0.371-0.401,0.557-0.855,0.557-1.364c0-0.685-0.21-1.193-0.63-1.525c-0.42-0.332-0.944-0.498-1.569-0.498
		c-0.509,0-0.958,0.029-1.349,0.088c-0.392,0.058-0.782,0.166-1.174,0.322c-0.605,0.235-1.183,0.519-1.73,0.851
		c-0.547,0.333-1.086,0.69-1.614,1.071c-0.528,0.381-1.051,0.773-1.569,1.174c-0.518,0.401-1.031,0.787-1.54,1.159
		c-0.821,0.586-1.622,1.051-2.406,1.393c-0.781,0.343-1.76,0.513-2.933,0.513c-1.409,0-2.542-0.381-3.404-1.144
		C34.709,52.727,34.278,51.622,34.278,50.175"/>
	<polygon class="st2" points="57.627,36.095 57.627,43.693 34.659,43.693 34.659,36.095 37.24,36.095 37.24,41.111 44.515,41.111 
		44.515,38.207 47.097,38.207 47.097,41.111 55.046,41.111 55.046,36.095 	"/>
	<g>
	</g>
	<g>
	</g>
	<g>
	</g>
	<g>
	</g>
	<g>
	</g>
	<g>
	</g>
	<g>
	</g>
	<g>
	</g>
	<g>
	</g>
	<g>
	</g>
	<g>
	</g>
	<g>
	</g>
	<g>
	</g>
	<g>
	</g>
	<g>
	</g>
</g>
</svg>
